<svg width="105" height="105" viewBox="0 0 105 105" fill="none" xmlns="http://www.w3.org/2000/svg">
<path d="M54.1406 88.5938C74.9807 88.5938 91.875 71.6995 91.875 50.8594C91.875 30.0193 74.9807 13.125 54.1406 13.125C33.3005 13.125 16.4062 30.0193 16.4062 50.8594C16.4062 71.6995 33.3005 88.5938 54.1406 88.5938Z" fill="white"/>
<path d="M52.5 105C81.2205 105 105 81.1696 105 52.5007C105 23.7799 81.1686 0 52.4485 0C23.7795 0 0 23.7799 0 52.5007C0 81.1696 23.8314 105 52.5 105ZM46.0153 84.001C44.0587 86.4708 40.9195 85.0812 41.434 82.0959L45.3459 60.6838H31.4485C28.6181 60.6838 27.6399 58.4194 29.8535 55.6913L57.2352 20.8451C59.1915 18.4262 62.3821 19.8165 61.868 22.8017L57.9045 44.2129H71.8525C74.6839 44.2129 75.662 46.4267 73.4485 49.1548L46.0153 84.001Z" fill="black"/>
</svg>
